<svg width="39" height="37" viewBox="0 0 39 37" fill="none" xmlns="http://www.w3.org/2000/svg">
<rect x="0.5" y="0.5" width="38" height="36" rx="9.5" stroke="black"/>
<mask id="path-2-outside-1_2036_52" maskUnits="userSpaceOnUse" x="11" y="11" width="18" height="16" fill="black">
<rect fill="white" x="11" y="11" width="18" height="16"/>
<path d="M11.9148 26L17.6348 11.94H18.7948L24.4748 26H23.6948L22.0148 21.82H14.4148L12.7148 26H11.9148ZM14.6748 21.16H21.7348L18.2748 12.6H18.1348L14.6748 21.16ZM27.3236 13.06C27.2036 13.1933 27.0503 13.26 26.8636 13.26C26.6769 13.26 26.5169 13.1933 26.3836 13.06C26.2503 12.9267 26.1836 12.7667 26.1836 12.58C26.1836 12.3933 26.2503 12.24 26.3836 12.12C26.5169 11.9867 26.6769 11.92 26.8636 11.92C27.0503 11.92 27.2036 11.9867 27.3236 12.12C27.4569 12.24 27.5236 12.3933 27.5236 12.58C27.5236 12.7667 27.4569 12.9267 27.3236 13.06ZM26.5036 26V15.4H27.2036V26H26.5036Z"/>
</mask>
<path d="M11.9148 26L17.6348 11.94H18.7948L24.4748 26H23.6948L22.0148 21.82H14.4148L12.7148 26H11.9148ZM14.6748 21.16H21.7348L18.2748 12.6H18.1348L14.6748 21.16ZM27.3236 13.06C27.2036 13.1933 27.0503 13.26 26.8636 13.26C26.6769 13.26 26.5169 13.1933 26.3836 13.06C26.2503 12.9267 26.1836 12.7667 26.1836 12.58C26.1836 12.3933 26.2503 12.24 26.3836 12.12C26.5169 11.9867 26.6769 11.92 26.8636 11.92C27.0503 11.92 27.2036 11.9867 27.3236 12.12C27.4569 12.24 27.5236 12.3933 27.5236 12.58C27.5236 12.7667 27.4569 12.9267 27.3236 13.06ZM26.5036 26V15.4H27.2036V26H26.5036Z" fill="black"/>
<path d="M11.9148 26L11.3591 25.7739L11.023 26.6H11.9148V26ZM17.6348 11.94V11.34H17.2312L17.0791 11.7139L17.6348 11.94ZM18.7948 11.94L19.3512 11.7153L19.1996 11.34H18.7948V11.94ZM24.4748 26V26.6H25.3643L25.0312 25.7753L24.4748 26ZM23.6948 26L23.1381 26.2238L23.2893 26.6H23.6948V26ZM22.0148 21.82L22.5716 21.5962L22.4203 21.22H22.0148V21.82ZM14.4148 21.82V21.22H14.0111L13.8591 21.594L14.4148 21.82ZM12.7148 26V26.6H13.1185L13.2706 26.226L12.7148 26ZM14.6748 21.16L14.1186 20.9351L13.7852 21.76H14.6748V21.16ZM21.7348 21.16V21.76H22.6245L22.2911 20.9351L21.7348 21.16ZM18.2748 12.6L18.8311 12.3751L18.6795 12H18.2748V12.6ZM18.1348 12.6V12H17.7302L17.5786 12.3751L18.1348 12.6ZM12.4706 26.2261L18.1906 12.1661L17.0791 11.7139L11.3591 25.7739L12.4706 26.2261ZM17.6348 12.54H18.7948V11.34H17.6348V12.54ZM18.2385 12.1647L23.9185 26.2247L25.0312 25.7753L19.3512 11.7153L18.2385 12.1647ZM24.4748 25.4H23.6948V26.6H24.4748V25.4ZM24.2516 25.7762L22.5716 21.5962L21.4581 22.0438L23.1381 26.2238L24.2516 25.7762ZM22.0148 21.22H14.4148V22.42H22.0148V21.22ZM13.8591 21.594L12.1591 25.774L13.2706 26.226L14.9706 22.046L13.8591 21.594ZM12.7148 25.4H11.9148V26.6H12.7148V25.4ZM14.6748 21.76H21.7348V20.56H14.6748V21.76ZM22.2911 20.9351L18.8311 12.3751L17.7186 12.8248L21.1786 21.3848L22.2911 20.9351ZM18.2748 12H18.1348V13.2H18.2748V12ZM17.5786 12.3751L14.1186 20.9351L15.2311 21.3848L18.6911 12.8248L17.5786 12.3751ZM27.3236 13.06L26.8993 12.6357L26.8882 12.6469L26.8776 12.6586L27.3236 13.06ZM26.3836 13.06L25.9593 13.4843L25.9593 13.4843L26.3836 13.06ZM26.3836 12.12L26.785 12.566L26.7967 12.5554L26.8079 12.5443L26.3836 12.12ZM27.3236 12.12L26.8776 12.5214L26.8987 12.5449L26.9222 12.566L27.3236 12.12ZM26.5036 26H25.9036V26.6H26.5036V26ZM26.5036 15.4V14.8H25.9036V15.4H26.5036ZM27.2036 15.4H27.8036V14.8H27.2036V15.4ZM27.2036 26V26.6H27.8036V26H27.2036ZM26.8776 12.6586C26.8736 12.6631 26.872 12.6641 26.873 12.6633C26.8742 12.6624 26.8765 12.661 26.8794 12.6598C26.8822 12.6585 26.8834 12.6584 26.8819 12.6587C26.8802 12.659 26.8745 12.66 26.8636 12.66V13.86C27.2125 13.86 27.5306 13.7269 27.7696 13.4614L26.8776 12.6586ZM26.8636 12.66C26.8433 12.66 26.8358 12.6567 26.8344 12.6562C26.8328 12.6555 26.824 12.6519 26.8079 12.6357L25.9593 13.4843C26.2039 13.7288 26.516 13.86 26.8636 13.86V12.66ZM26.8079 12.6357C26.7917 12.6196 26.7881 12.6108 26.7874 12.6092C26.7869 12.6078 26.7836 12.6003 26.7836 12.58H25.5836C25.5836 12.9276 25.7148 13.2397 25.9593 13.4843L26.8079 12.6357ZM26.7836 12.58C26.7836 12.5691 26.7846 12.5634 26.7849 12.5617C26.7852 12.5602 26.7851 12.5614 26.7838 12.5642C26.7826 12.5671 26.7812 12.5694 26.7803 12.5706C26.7795 12.5716 26.7805 12.57 26.785 12.566L25.9822 11.674C25.7167 11.9129 25.5836 12.2311 25.5836 12.58H26.7836ZM26.8079 12.5443C26.824 12.5281 26.8328 12.5245 26.8344 12.5238C26.8358 12.5233 26.8433 12.52 26.8636 12.52V11.32C26.516 11.32 26.2039 11.4512 25.9593 11.6957L26.8079 12.5443ZM26.8636 12.52C26.8745 12.52 26.8802 12.521 26.8819 12.5213C26.8834 12.5216 26.8822 12.5215 26.8794 12.5202C26.8765 12.519 26.8742 12.5176 26.873 12.5167C26.872 12.5159 26.8736 12.5169 26.8776 12.5214L27.7696 11.7186C27.5306 11.4531 27.2125 11.32 26.8636 11.32V12.52ZM26.9222 12.566C26.9267 12.57 26.9277 12.5716 26.9269 12.5706C26.926 12.5694 26.9246 12.5671 26.9234 12.5642C26.9221 12.5614 26.922 12.5602 26.9223 12.5617C26.9226 12.5634 26.9236 12.5691 26.9236 12.58H28.1236C28.1236 12.2311 27.9904 11.9129 27.725 11.674L26.9222 12.566ZM26.9236 12.58C26.9236 12.6003 26.9203 12.6078 26.9197 12.6092C26.9191 12.6108 26.9155 12.6196 26.8993 12.6357L27.7479 13.4843C27.9924 13.2397 28.1236 12.9276 28.1236 12.58H26.9236ZM27.1036 26V15.4H25.9036V26H27.1036ZM26.5036 16H27.2036V14.8H26.5036V16ZM26.6036 15.4V26H27.8036V15.4H26.6036ZM27.2036 25.4H26.5036V26.6H27.2036V25.4Z" fill="black" mask="url(#path-2-outside-1_2036_52)"/>
</svg>
