<svg width="39" height="37" viewBox="0 0 39 37" fill="none" xmlns="http://www.w3.org/2000/svg">
<rect x="0.5" y="0.5" width="38" height="36" rx="9.5" stroke="black"/>
<mask id="path-2-outside-1_2036_53" maskUnits="userSpaceOnUse" x="4" y="16" width="31" height="7" fill="black">
<rect fill="white" x="4" y="16" width="31" height="7"/>
<path d="M7.95616 22.033C7.08349 22.0403 6.38682 21.7727 5.86616 21.23C5.35282 20.68 5.09249 19.9687 5.08516 19.096C5.09249 18.194 5.34549 17.4753 5.84416 16.94C6.35016 16.4047 7.05416 16.1407 7.95616 16.148C8.55749 16.148 9.08916 16.2617 9.55116 16.489L9.40816 16.786C8.93149 16.5733 8.45482 16.467 7.97816 16.467C7.17149 16.4597 6.54816 16.6943 6.10816 17.171C5.67549 17.6403 5.45916 18.282 5.45916 19.096C5.46649 19.8733 5.68282 20.504 6.10816 20.988C6.54082 21.4647 7.14216 21.7067 7.91216 21.714C8.45482 21.714 8.95349 21.6003 9.40816 21.373L9.55116 21.681C9.09649 21.901 8.56482 22.0183 7.95616 22.033ZM15.1635 20.658V17.534C14.9508 17.2113 14.6611 16.9583 14.2945 16.775C13.9351 16.5917 13.5501 16.5 13.1395 16.5C12.3988 16.5 11.8341 16.7383 11.4455 17.215C11.0568 17.6843 10.8625 18.293 10.8625 19.041C10.8625 19.789 11.0641 20.4197 11.4675 20.933C11.8708 21.439 12.4391 21.692 13.1725 21.692C13.5831 21.692 13.9608 21.604 14.3055 21.428C14.6575 21.2447 14.9435 20.988 15.1635 20.658ZM15.1635 17.006V16.181H15.5485V22H15.1635V21.175C14.9655 21.417 14.6941 21.6187 14.3495 21.78C14.0048 21.9413 13.6125 22.022 13.1725 22.022C12.3438 22.022 11.6875 21.7397 11.2035 21.175C10.7268 20.603 10.4885 19.8917 10.4885 19.041C10.4885 18.1903 10.7231 17.4973 11.1925 16.962C11.6691 16.4267 12.3255 16.1627 13.1615 16.17C13.9828 16.17 14.6501 16.4487 15.1635 17.006ZM17.198 22V16.17H17.572V16.995C18.3054 16.4157 19.0864 16.137 19.915 16.159C21.2937 16.1883 21.983 16.9107 21.983 18.326V22H21.609V18.326C21.609 17.732 21.4734 17.281 21.202 16.973C20.9307 16.665 20.4944 16.5037 19.893 16.489C19.475 16.4817 19.057 16.5697 18.639 16.753C18.221 16.929 17.8654 17.171 17.572 17.479V22H17.198ZM25.4146 22L23.0276 16.17H23.4236L25.6566 21.637H25.7116L27.9336 16.17H28.3406L25.9756 22H25.4146ZM33.7904 20.658V17.534C33.5778 17.2113 33.2881 16.9583 32.9214 16.775C32.5621 16.5917 32.1771 16.5 31.7664 16.5C31.0258 16.5 30.4611 16.7383 30.0724 17.215C29.6838 17.6843 29.4894 18.293 29.4894 19.041C29.4894 19.789 29.6911 20.4197 30.0944 20.933C30.4978 21.439 31.0661 21.692 31.7994 21.692C32.2101 21.692 32.5878 21.604 32.9324 21.428C33.2844 21.2447 33.5704 20.988 33.7904 20.658ZM33.7904 17.006V16.181H34.1754V22H33.7904V21.175C33.5924 21.417 33.3211 21.6187 32.9764 21.78C32.6318 21.9413 32.2394 22.022 31.7994 22.022C30.9708 22.022 30.3144 21.7397 29.8304 21.175C29.3538 20.603 29.1154 19.8917 29.1154 19.041C29.1154 18.1903 29.3501 17.4973 29.8194 16.962C30.2961 16.4267 30.9524 16.1627 31.7884 16.17C32.6098 16.17 33.2771 16.4487 33.7904 17.006Z"/>
</mask>
<path d="M7.95616 22.033C7.08349 22.0403 6.38682 21.7727 5.86616 21.23C5.35282 20.68 5.09249 19.9687 5.08516 19.096C5.09249 18.194 5.34549 17.4753 5.84416 16.94C6.35016 16.4047 7.05416 16.1407 7.95616 16.148C8.55749 16.148 9.08916 16.2617 9.55116 16.489L9.40816 16.786C8.93149 16.5733 8.45482 16.467 7.97816 16.467C7.17149 16.4597 6.54816 16.6943 6.10816 17.171C5.67549 17.6403 5.45916 18.282 5.45916 19.096C5.46649 19.8733 5.68282 20.504 6.10816 20.988C6.54082 21.4647 7.14216 21.7067 7.91216 21.714C8.45482 21.714 8.95349 21.6003 9.40816 21.373L9.55116 21.681C9.09649 21.901 8.56482 22.0183 7.95616 22.033ZM15.1635 20.658V17.534C14.9508 17.2113 14.6611 16.9583 14.2945 16.775C13.9351 16.5917 13.5501 16.5 13.1395 16.5C12.3988 16.5 11.8341 16.7383 11.4455 17.215C11.0568 17.6843 10.8625 18.293 10.8625 19.041C10.8625 19.789 11.0641 20.4197 11.4675 20.933C11.8708 21.439 12.4391 21.692 13.1725 21.692C13.5831 21.692 13.9608 21.604 14.3055 21.428C14.6575 21.2447 14.9435 20.988 15.1635 20.658ZM15.1635 17.006V16.181H15.5485V22H15.1635V21.175C14.9655 21.417 14.6941 21.6187 14.3495 21.78C14.0048 21.9413 13.6125 22.022 13.1725 22.022C12.3438 22.022 11.6875 21.7397 11.2035 21.175C10.7268 20.603 10.4885 19.8917 10.4885 19.041C10.4885 18.1903 10.7231 17.4973 11.1925 16.962C11.6691 16.4267 12.3255 16.1627 13.1615 16.17C13.9828 16.17 14.6501 16.4487 15.1635 17.006ZM17.198 22V16.17H17.572V16.995C18.3054 16.4157 19.0864 16.137 19.915 16.159C21.2937 16.1883 21.983 16.9107 21.983 18.326V22H21.609V18.326C21.609 17.732 21.4734 17.281 21.202 16.973C20.9307 16.665 20.4944 16.5037 19.893 16.489C19.475 16.4817 19.057 16.5697 18.639 16.753C18.221 16.929 17.8654 17.171 17.572 17.479V22H17.198ZM25.4146 22L23.0276 16.17H23.4236L25.6566 21.637H25.7116L27.9336 16.17H28.3406L25.9756 22H25.4146ZM33.7904 20.658V17.534C33.5778 17.2113 33.2881 16.9583 32.9214 16.775C32.5621 16.5917 32.1771 16.5 31.7664 16.5C31.0258 16.5 30.4611 16.7383 30.0724 17.215C29.6838 17.6843 29.4894 18.293 29.4894 19.041C29.4894 19.789 29.6911 20.4197 30.0944 20.933C30.4978 21.439 31.0661 21.692 31.7994 21.692C32.2101 21.692 32.5878 21.604 32.9324 21.428C33.2844 21.2447 33.5704 20.988 33.7904 20.658ZM33.7904 17.006V16.181H34.1754V22H33.7904V21.175C33.5924 21.417 33.3211 21.6187 32.9764 21.78C32.6318 21.9413 32.2394 22.022 31.7994 22.022C30.9708 22.022 30.3144 21.7397 29.8304 21.175C29.3538 20.603 29.1154 19.8917 29.1154 19.041C29.1154 18.1903 29.3501 17.4973 29.8194 16.962C30.2961 16.4267 30.9524 16.1627 31.7884 16.17C32.6098 16.17 33.2771 16.4487 33.7904 17.006Z" fill="black"/>
<path d="M7.95616 22.033L7.957 22.133L7.95857 22.133L7.95616 22.033ZM5.86616 21.23L5.79304 21.2982L5.794 21.2992L5.86616 21.23ZM5.08516 19.096L4.98515 19.0952L4.98516 19.0968L5.08516 19.096ZM5.84416 16.94L5.77148 16.8713L5.77098 16.8718L5.84416 16.94ZM7.95616 16.148L7.95534 16.248H7.95616V16.148ZM9.55116 16.489L9.64126 16.5324L9.68427 16.443L9.59531 16.3993L9.55116 16.489ZM9.40816 16.786L9.36741 16.8773L9.45612 16.9169L9.49826 16.8294L9.40816 16.786ZM7.97816 16.467L7.97725 16.567H7.97816V16.467ZM6.10816 17.171L6.03468 17.1032L6.03463 17.1032L6.10816 17.171ZM5.45916 19.096H5.35915L5.35916 19.0969L5.45916 19.096ZM6.10816 20.988L6.03303 21.054L6.03411 21.0552L6.10816 20.988ZM7.91216 21.714L7.9112 21.814H7.91216V21.714ZM9.40816 21.373L9.49886 21.3309L9.45551 21.2375L9.36344 21.2836L9.40816 21.373ZM9.55116 21.681L9.59471 21.771L9.6833 21.7282L9.64186 21.6389L9.55116 21.681ZM7.95532 21.933C7.10536 21.9401 6.43682 21.6803 5.93831 21.1608L5.794 21.2992C6.33682 21.865 7.06162 22.1405 7.957 22.133L7.95532 21.933ZM5.93926 21.1618C5.44572 20.633 5.19231 19.9471 5.18515 19.0952L4.98516 19.0968C4.99267 19.9903 5.25992 20.727 5.79305 21.2982L5.93926 21.1618ZM5.18515 19.0968C5.19233 18.2137 5.43946 17.5212 5.91733 17.0082L5.77098 16.8718C5.25152 17.4295 4.99265 18.1743 4.98516 19.0952L5.18515 19.0968ZM5.91683 17.0087C6.39958 16.498 7.07441 16.2408 7.95534 16.248L7.95697 16.048C7.0339 16.0405 6.30073 16.3114 5.77148 16.8713L5.91683 17.0087ZM7.95616 16.248C8.54474 16.248 9.06087 16.3592 9.50701 16.5787L9.59531 16.3993C9.11744 16.1641 8.57024 16.048 7.95616 16.048V16.248ZM9.46106 16.4456L9.31806 16.7426L9.49826 16.8294L9.64126 16.5324L9.46106 16.4456ZM9.4489 16.6947C8.96064 16.4768 8.47015 16.367 7.97816 16.367V16.567C8.4395 16.567 8.90234 16.6698 9.36741 16.8773L9.4489 16.6947ZM7.97907 16.367C7.15156 16.3595 6.49832 16.6009 6.03468 17.1032L6.18164 17.2388C6.59799 16.7878 7.19142 16.5599 7.97725 16.567L7.97907 16.367ZM6.03463 17.1032C5.58064 17.5957 5.35916 18.264 5.35916 19.096H5.55916C5.55916 18.3 5.77034 17.685 6.18168 17.2388L6.03463 17.1032ZM5.35916 19.0969C5.36667 19.8931 5.58877 20.5485 6.03304 21.054L6.18327 20.922C5.77687 20.4595 5.56631 19.8536 5.55915 19.0951L5.35916 19.0969ZM6.03411 21.0552C6.48915 21.5565 7.11927 21.8065 7.9112 21.814L7.91311 21.614C7.16505 21.6069 6.59249 21.3728 6.1822 20.9208L6.03411 21.0552ZM7.91216 21.814C8.46927 21.814 8.9834 21.6972 9.45288 21.4624L9.36344 21.2836C8.92358 21.5035 8.44037 21.614 7.91216 21.614V21.814ZM9.31746 21.4151L9.46046 21.7231L9.64186 21.6389L9.49886 21.3309L9.31746 21.4151ZM9.5076 21.591C9.06814 21.8036 8.55102 21.9186 7.95375 21.933L7.95857 22.133C8.57862 22.118 9.12484 21.9984 9.59471 21.771L9.5076 21.591ZM15.1635 20.658L15.2467 20.7135L15.2635 20.6883V20.658H15.1635ZM15.1635 17.534H15.2635V17.504L15.247 17.479L15.1635 17.534ZM14.2945 16.775L14.249 16.8641L14.2498 16.8644L14.2945 16.775ZM11.4455 17.215L11.5225 17.2788L11.523 17.2782L11.4455 17.215ZM11.4675 20.933L11.3888 20.9948L11.3893 20.9953L11.4675 20.933ZM14.3055 21.428L14.351 21.5171L14.3517 21.5167L14.3055 21.428ZM15.1635 17.006L15.0899 17.0737L15.2635 17.2622V17.006H15.1635ZM15.1635 16.181V16.081H15.0635V16.181H15.1635ZM15.5485 16.181H15.6485V16.081H15.5485V16.181ZM15.5485 22V22.1H15.6485V22H15.5485ZM15.1635 22H15.0635V22.1H15.1635V22ZM15.1635 21.175H15.2635V20.8949L15.0861 21.1117L15.1635 21.175ZM14.3495 21.78L14.3919 21.8706L14.3919 21.8706L14.3495 21.78ZM11.2035 21.175L11.1266 21.239L11.1276 21.2401L11.2035 21.175ZM11.1925 16.962L11.1178 16.8955L11.1173 16.8961L11.1925 16.962ZM13.1615 16.17L13.1606 16.27H13.1615V16.17ZM15.2635 20.658V17.534H15.0635V20.658H15.2635ZM15.247 17.479C15.024 17.1407 14.7206 16.8763 14.3392 16.6856L14.2498 16.8644C14.6017 17.0404 14.8776 17.2819 15.08 17.589L15.247 17.479ZM14.3399 16.6859C13.9663 16.4953 13.5656 16.4 13.1395 16.4V16.6C13.5346 16.6 13.904 16.6881 14.249 16.8641L14.3399 16.6859ZM13.1395 16.4C12.3755 16.4 11.7795 16.6471 11.368 17.1518L11.523 17.2782C11.8887 16.8296 12.4221 16.6 13.1395 16.6V16.4ZM11.3685 17.1512C10.9618 17.6423 10.7625 18.2752 10.7625 19.041H10.9625C10.9625 18.3108 11.1518 17.7264 11.5225 17.2788L11.3685 17.1512ZM10.7625 19.041C10.7625 19.808 10.9697 20.4613 11.3888 20.9948L11.5461 20.8712C11.1586 20.378 10.9625 19.77 10.9625 19.041H10.7625ZM11.3893 20.9953C11.8143 21.5285 12.4133 21.792 13.1725 21.792V21.592C12.465 21.592 11.9273 21.3495 11.5457 20.8707L11.3893 20.9953ZM13.1725 21.792C13.598 21.792 13.9913 21.7007 14.351 21.5171L14.26 21.3389C13.9303 21.5073 13.5683 21.592 13.1725 21.592V21.792ZM14.3517 21.5167C14.7186 21.3256 15.0173 21.0575 15.2467 20.7135L15.0803 20.6025C14.8696 20.9185 14.5964 21.1637 14.2593 21.3393L14.3517 21.5167ZM15.2635 17.006V16.181H15.0635V17.006H15.2635ZM15.1635 16.281H15.5485V16.081H15.1635V16.281ZM15.4485 16.181V22H15.6485V16.181H15.4485ZM15.5485 21.9H15.1635V22.1H15.5485V21.9ZM15.2635 22V21.175H15.0635V22H15.2635ZM15.0861 21.1117C14.8994 21.3398 14.6411 21.5331 14.3071 21.6894L14.3919 21.8706C14.7472 21.7042 15.0316 21.4942 15.2409 21.2383L15.0861 21.1117ZM14.3071 21.6894C13.9776 21.8437 13.6001 21.922 13.1725 21.922V22.122C13.6248 22.122 14.032 22.039 14.3919 21.8706L14.3071 21.6894ZM13.1725 21.922C12.3693 21.922 11.7421 21.6497 11.2794 21.1099L11.1276 21.2401C11.6329 21.8296 12.3184 22.122 13.1725 22.122V21.922ZM11.2803 21.111C10.8207 20.5595 10.5885 19.8718 10.5885 19.041H10.3885C10.3885 19.9115 10.6329 20.6465 11.1267 21.239L11.2803 21.111ZM10.5885 19.041C10.5885 18.2096 10.8173 17.5416 11.2677 17.0279L11.1173 16.8961C10.629 17.4531 10.3885 18.171 10.3885 19.041H10.5885ZM11.2672 17.0285C11.7214 16.5184 12.3481 16.2629 13.1606 16.27L13.1624 16.07C12.3028 16.0625 11.6169 16.335 11.1178 16.8955L11.2672 17.0285ZM13.1615 16.27C13.9575 16.27 14.5972 16.5388 15.0899 17.0737L15.237 16.9383C14.7031 16.3585 14.0081 16.07 13.1615 16.07V16.27ZM17.198 22H17.098V22.1H17.198V22ZM17.198 16.17V16.07H17.098V16.17H17.198ZM17.572 16.17H17.672V16.07H17.572V16.17ZM17.572 16.995H17.472V17.2014L17.634 17.0735L17.572 16.995ZM19.915 16.159L19.9124 16.259L19.9129 16.259L19.915 16.159ZM21.983 22V22.1H22.083V22H21.983ZM21.609 22H21.509V22.1H21.609V22ZM19.893 16.489L19.8955 16.389L19.8948 16.389L19.893 16.489ZM18.639 16.753L18.6779 16.8452L18.6792 16.8446L18.639 16.753ZM17.572 17.479L17.4996 17.41L17.472 17.439V17.479H17.572ZM17.572 22V22.1H17.672V22H17.572ZM17.298 22V16.17H17.098V22H17.298ZM17.198 16.27H17.572V16.07H17.198V16.27ZM17.472 16.17V16.995H17.672V16.17H17.472ZM17.634 17.0735C18.3515 16.5067 19.1101 16.2377 19.9124 16.259L19.9177 16.059C19.0627 16.0363 18.2593 16.3247 17.5101 16.9165L17.634 17.0735ZM19.9129 16.259C20.586 16.2733 21.0735 16.4562 21.3937 16.7918C21.7144 17.1278 21.883 17.6333 21.883 18.326H22.083C22.083 17.6034 21.9071 17.04 21.5384 16.6537C21.1693 16.2669 20.6228 16.074 19.9172 16.059L19.9129 16.259ZM21.883 18.326V22H22.083V18.326H21.883ZM21.983 21.9H21.609V22.1H21.983V21.9ZM21.709 22V18.326H21.509V22H21.709ZM21.709 18.326C21.709 17.7184 21.5704 17.2398 21.2771 16.9069L21.127 17.0391C21.3764 17.3222 21.509 17.7456 21.509 18.326H21.709ZM21.2771 16.9069C20.9802 16.5699 20.5116 16.4041 19.8955 16.389L19.8906 16.589C20.4772 16.6033 20.8813 16.7601 21.127 17.0391L21.2771 16.9069ZM19.8948 16.389C19.4611 16.3814 19.0289 16.4728 18.5989 16.6614L18.6792 16.8446C19.0852 16.6665 19.489 16.5819 19.8913 16.589L19.8948 16.389ZM18.6002 16.6608C18.1704 16.8418 17.8031 17.0914 17.4996 17.41L17.6445 17.548C17.9277 17.2506 18.2717 17.0162 18.6779 16.8452L18.6002 16.6608ZM17.472 17.479V22H17.672V17.479H17.472ZM17.572 21.9H17.198V22.1H17.572V21.9ZM25.4146 22L25.3221 22.0379L25.3475 22.1H25.4146V22ZM23.0276 16.17V16.07H22.8786L22.9351 16.2079L23.0276 16.17ZM23.4236 16.17L23.5162 16.1322L23.4908 16.07H23.4236V16.17ZM25.6566 21.637L25.564 21.6748L25.5894 21.737H25.6566V21.637ZM25.7116 21.637V21.737H25.7789L25.8043 21.6747L25.7116 21.637ZM27.9336 16.17V16.07H27.8663L27.841 16.1323L27.9336 16.17ZM28.3406 16.17L28.4333 16.2076L28.4891 16.07H28.3406V16.17ZM25.9756 22V22.1H26.043L26.0683 22.0376L25.9756 22ZM25.5072 21.9621L23.1202 16.1321L22.9351 16.2079L25.3221 22.0379L25.5072 21.9621ZM23.0276 16.27H23.4236V16.07H23.0276V16.27ZM23.331 16.2078L25.564 21.6748L25.7492 21.5992L23.5162 16.1322L23.331 16.2078ZM25.6566 21.737H25.7116V21.537H25.6566V21.737ZM25.8043 21.6747L28.0263 16.2077L27.841 16.1323L25.619 21.5993L25.8043 21.6747ZM27.9336 16.27H28.3406V16.07H27.9336V16.27ZM28.248 16.1324L25.883 21.9624L26.0683 22.0376L28.4333 16.2076L28.248 16.1324ZM25.9756 21.9H25.4146V22.1H25.9756V21.9ZM33.7904 20.658L33.8736 20.7135L33.8904 20.6883V20.658H33.7904ZM33.7904 17.534H33.8904V17.504L33.8739 17.479L33.7904 17.534ZM32.9214 16.775L32.876 16.8641L32.8767 16.8644L32.9214 16.775ZM30.0724 17.215L30.1495 17.2788L30.1499 17.2782L30.0724 17.215ZM30.0944 20.933L30.0158 20.9948L30.0162 20.9953L30.0944 20.933ZM32.9324 21.428L32.9779 21.5171L32.9786 21.5167L32.9324 21.428ZM33.7904 17.006L33.7169 17.0737L33.8904 17.2622V17.006H33.7904ZM33.7904 16.181V16.081H33.6904V16.181H33.7904ZM34.1754 16.181H34.2754V16.081H34.1754V16.181ZM34.1754 22V22.1H34.2754V22H34.1754ZM33.7904 22H33.6904V22.1H33.7904V22ZM33.7904 21.175H33.8904V20.8949L33.713 21.1117L33.7904 21.175ZM32.9764 21.78L33.0188 21.8706L33.0188 21.8706L32.9764 21.78ZM29.8304 21.175L29.7536 21.239L29.7545 21.2401L29.8304 21.175ZM29.8194 16.962L29.7447 16.8955L29.7442 16.8961L29.8194 16.962ZM31.7884 16.17L31.7876 16.27H31.7884V16.17ZM33.8904 20.658V17.534H33.6904V20.658H33.8904ZM33.8739 17.479C33.651 17.1407 33.3476 16.8763 32.9662 16.6856L32.8767 16.8644C33.2286 17.0404 33.5045 17.2819 33.7069 17.589L33.8739 17.479ZM32.9669 16.6859C32.5932 16.4953 32.1926 16.4 31.7664 16.4V16.6C32.1616 16.6 32.531 16.6881 32.876 16.8641L32.9669 16.6859ZM31.7664 16.4C31.0025 16.4 30.4065 16.6471 29.9949 17.1518L30.1499 17.2782C30.5157 16.8296 31.049 16.6 31.7664 16.6V16.4ZM29.9954 17.1512C29.5887 17.6423 29.3894 18.2752 29.3894 19.041H29.5894C29.5894 18.3108 29.7788 17.7264 30.1494 17.2788L29.9954 17.1512ZM29.3894 19.041C29.3894 19.808 29.5966 20.4613 30.0158 20.9948L30.1731 20.8712C29.7855 20.378 29.5894 19.77 29.5894 19.041H29.3894ZM30.0162 20.9953C30.4412 21.5285 31.0402 21.792 31.7994 21.792V21.592C31.0919 21.592 30.5543 21.3495 30.1726 20.8707L30.0162 20.9953ZM31.7994 21.792C32.2249 21.792 32.6183 21.7007 32.9779 21.5171L32.887 21.3389C32.5572 21.5073 32.1953 21.592 31.7994 21.592V21.792ZM32.9786 21.5167C33.3456 21.3256 33.6443 21.0575 33.8736 20.7135L33.7072 20.6025C33.4966 20.9185 33.2233 21.1637 32.8862 21.3393L32.9786 21.5167ZM33.8904 17.006V16.181H33.6904V17.006H33.8904ZM33.7904 16.281H34.1754V16.081H33.7904V16.281ZM34.0754 16.181V22H34.2754V16.181H34.0754ZM34.1754 21.9H33.7904V22.1H34.1754V21.9ZM33.8904 22V21.175H33.6904V22H33.8904ZM33.713 21.1117C33.5263 21.3398 33.268 21.5331 32.934 21.6894L33.0188 21.8706C33.3742 21.7042 33.6585 21.4942 33.8678 21.2383L33.713 21.1117ZM32.934 21.6894C32.6046 21.8437 32.2271 21.922 31.7994 21.922V22.122C32.2518 22.122 32.659 22.039 33.0188 21.8706L32.934 21.6894ZM31.7994 21.922C30.9962 21.922 30.369 21.6497 29.9064 21.1099L29.7545 21.2401C30.2598 21.8296 30.9453 22.122 31.7994 22.122V21.922ZM29.9073 21.111C29.4477 20.5595 29.2154 19.8718 29.2154 19.041H29.0154C29.0154 19.9115 29.2599 20.6465 29.7536 21.239L29.9073 21.111ZM29.2154 19.041C29.2154 18.2096 29.4443 17.5416 29.8946 17.0279L29.7442 16.8961C29.2559 17.4531 29.0154 18.171 29.0154 19.041H29.2154ZM29.8941 17.0285C30.3483 16.5184 30.9751 16.2629 31.7876 16.27L31.7893 16.07C30.9298 16.0625 30.2439 16.335 29.7447 16.8955L29.8941 17.0285ZM31.7884 16.27C32.5844 16.27 33.2242 16.5388 33.7169 17.0737L33.864 16.9383C33.33 16.3585 32.6351 16.07 31.7884 16.07V16.27Z" fill="black" mask="url(#path-2-outside-1_2036_53)"/>
</svg>
